<svg xmlns="http://www.w3.org/2000/svg" xmlns:xlink="http://www.w3.org/1999/xlink" version="1.1" width="256" height="256" viewBox="0 0 256 256" xml:space="preserve">

<defs>
</defs>
<g style="stroke: none; stroke-width: 0; stroke-dasharray: none; stroke-linecap: butt; stroke-linejoin: miter; stroke-miterlimit: 10; fill: none; fill-rule: nonzero; opacity: 1;" transform="translate(1.4065934065934016 1.4065934065934016) scale(2.81 2.81)" >
	<path d="M 88.5 76.247 H 58.175 c -0.828 0 -1.5 -0.672 -1.5 -1.5 s 0.672 -1.5 1.5 -1.5 H 88.5 c 0.828 0 1.5 0.672 1.5 1.5 S 89.328 76.247 88.5 76.247 z" style="stroke: none; stroke-width: 1; stroke-dasharray: none; stroke-linecap: butt; stroke-linejoin: miter; stroke-miterlimit: 10; fill: yellow; fill-rule: nonzero; opacity: 1;" transform=" matrix(1 0 0 1 0 0) " stroke-linecap="round" />
	<path d="M 31.825 76.247 H 1.5 c -0.829 0 -1.5 -0.672 -1.5 -1.5 s 0.671 -1.5 1.5 -1.5 h 30.325 c 0.829 0 1.5 0.672 1.5 1.5 S 32.653 76.247 31.825 76.247 z" style="stroke: none; stroke-width: 1; stroke-dasharray: none; stroke-linecap: butt; stroke-linejoin: miter; stroke-miterlimit: 10; fill: yellow; fill-rule: nonzero; opacity: 1;" transform=" matrix(1 0 0 1 0 0) " stroke-linecap="round" />
	<path d="M 76.887 59.519 H 63.663 c -0.828 0 -1.5 -0.672 -1.5 -1.5 s 0.672 -1.5 1.5 -1.5 h 13.224 C 82.463 56.519 87 51.981 87 46.405 c 0 -5.335 -4.179 -9.764 -9.514 -10.081 l -1.581 -0.094 l 0.18 -1.573 c 0.1 -0.872 0.147 -1.652 0.147 -2.385 c 0 -7.973 -4.657 -15.333 -11.864 -18.752 c -2.785 -1.321 -5.772 -1.99 -8.878 -1.99 c -7.165 0 -13.729 3.641 -17.559 9.74 l -0.745 1.186 l -1.234 -0.662 c -4.187 -2.247 -9.36 -2.472 -13.707 -0.624 c -5.578 2.373 -9.368 7.822 -9.654 13.882 l -0.057 1.197 l -1.18 0.209 C 6.514 37.318 3 41.501 3 46.405 c 0 5.576 4.537 10.113 10.113 10.113 h 13.35 c 0.829 0 1.5 0.672 1.5 1.5 s -0.671 1.5 -1.5 1.5 h -13.35 C 5.883 59.519 0 53.636 0 46.405 c 0 -5.967 4.008 -11.11 9.684 -12.645 c 0.739 -6.736 5.11 -12.681 11.387 -15.351 c 2.337 -0.994 4.819 -1.498 7.378 -1.498 c 2.648 0 5.282 0.563 7.693 1.637 C 40.602 12.25 47.738 8.53 55.49 8.53 c 3.554 0 6.973 0.767 10.163 2.279 c 8.249 3.913 13.579 12.338 13.579 21.463 c 0 0.401 -0.013 0.813 -0.037 1.239 C 85.365 34.61 90 40.004 90 46.405 C 90 53.636 84.117 59.519 76.887 59.519 z" style="stroke: none; stroke-width: 1; stroke-dasharray: none; stroke-linecap: butt; stroke-linejoin: miter; stroke-miterlimit: 10; fill: yellow; fill-rule: nonzero; opacity: 1;" transform=" matrix(1 0 0 1 0 0) " stroke-linecap="round" />
	<path d="M 67.472 34.345 c -0.828 0 -1.5 -0.671 -1.5 -1.5 c 0 -4.102 -2.414 -7.85 -6.149 -9.548 c -0.754 -0.343 -1.087 -1.232 -0.744 -1.986 c 0.343 -0.754 1.234 -1.085 1.986 -0.745 c 4.804 2.184 7.907 7.004 7.907 12.279 C 68.972 33.673 68.3 34.345 67.472 34.345 z" style="stroke: none; stroke-width: 1; stroke-dasharray: none; stroke-linecap: butt; stroke-linejoin: miter; stroke-miterlimit: 10; fill: yellow; fill-rule: nonzero; opacity: 1;" transform=" matrix(1 0 0 1 0 0) " stroke-linecap="round" />
	<path d="M 21.859 37.054 c -0.023 0 -0.047 0 -0.072 -0.001 c -0.828 -0.039 -1.467 -0.742 -1.428 -1.569 c 0.117 -2.483 1.343 -4.743 3.362 -6.197 c 0.672 -0.485 1.609 -0.332 2.094 0.34 c 0.484 0.672 0.332 1.609 -0.34 2.094 c -1.273 0.917 -2.045 2.341 -2.119 3.905 C 23.319 36.428 22.655 37.054 21.859 37.054 z" style="stroke: none; stroke-width: 1; stroke-dasharray: none; stroke-linecap: butt; stroke-linejoin: miter; stroke-miterlimit: 10; fill: yellow; fill-rule: nonzero; opacity: 1;" transform=" matrix(1 0 0 1 0 0) " stroke-linecap="round" />
	<path d="M 51.417 57.981 h -0.834 c -0.828 0 -1.5 -0.672 -1.5 -1.5 s 0.672 -1.5 1.5 -1.5 h 0.834 c 0.828 0 1.5 0.672 1.5 1.5 S 52.245 57.981 51.417 57.981 z" style="stroke: none; stroke-width: 1; stroke-dasharray: none; stroke-linecap: butt; stroke-linejoin: miter; stroke-miterlimit: 10; fill: yellow; fill-rule: nonzero; opacity: 1;" transform=" matrix(1 0 0 1 0 0) " stroke-linecap="round" />
	<path d="M 46.041 57.981 h -0.834 c -0.829 0 -1.5 -0.672 -1.5 -1.5 s 0.671 -1.5 1.5 -1.5 h 0.834 c 0.828 0 1.5 0.672 1.5 1.5 S 46.869 57.981 46.041 57.981 z" style="stroke: none; stroke-width: 1; stroke-dasharray: none; stroke-linecap: butt; stroke-linejoin: miter; stroke-miterlimit: 10; fill: yellow; fill-rule: nonzero; opacity: 1;" transform=" matrix(1 0 0 1 0 0) " stroke-linecap="round" />
	<path d="M 51.417 46.877 h -0.834 c -0.828 0 -1.5 -0.672 -1.5 -1.5 s 0.672 -1.5 1.5 -1.5 h 0.834 c 0.828 0 1.5 0.671 1.5 1.5 S 52.245 46.877 51.417 46.877 z" style="stroke: none; stroke-width: 1; stroke-dasharray: none; stroke-linecap: butt; stroke-linejoin: miter; stroke-miterlimit: 10; fill: yellow; fill-rule: nonzero; opacity: 1;" transform=" matrix(1 0 0 1 0 0) " stroke-linecap="round" />
	<path d="M 46.041 46.877 h -0.834 c -0.829 0 -1.5 -0.672 -1.5 -1.5 s 0.671 -1.5 1.5 -1.5 h 0.834 c 0.828 0 1.5 0.671 1.5 1.5 S 46.869 46.877 46.041 46.877 z" style="stroke: none; stroke-width: 1; stroke-dasharray: none; stroke-linecap: butt; stroke-linejoin: miter; stroke-miterlimit: 10; fill: yellow; fill-rule: nonzero; opacity: 1;" transform=" matrix(1 0 0 1 0 0) " stroke-linecap="round" />
	<path d="M 57.564 30.971 c 0 -2.069 -1.684 -3.753 -3.753 -3.753 H 36.188 c -2.07 0 -3.753 1.684 -3.753 3.753 v 6.6 c 0 0.849 0.294 1.624 0.771 2.253 c -0.477 0.629 -0.771 1.404 -0.771 2.253 v 6.599 c 0 0.849 0.294 1.624 0.771 2.253 c -0.477 0.63 -0.771 1.405 -0.771 2.254 v 6.599 c 0 2.069 1.684 3.753 3.753 3.753 H 43.5 v 4.664 c -2.986 0.684 -5.223 3.358 -5.223 6.549 c 0 3.707 3.016 6.723 6.723 6.723 s 6.724 -3.016 6.724 -6.723 c 0 -3.191 -2.237 -5.865 -5.224 -6.549 v -4.664 h 7.312 c 2.069 0 3.753 -1.684 3.753 -3.753 v -6.599 c 0 -0.849 -0.294 -1.624 -0.771 -2.254 c 0.477 -0.629 0.771 -1.404 0.771 -2.253 v -6.599 c 0 -0.849 -0.294 -1.624 -0.771 -2.253 c 0.477 -0.629 0.771 -1.404 0.771 -2.253 V 30.971 z M 48.724 74.747 c 0 2.053 -1.671 3.723 -3.724 3.723 s -3.723 -1.67 -3.723 -3.723 s 1.67 -3.724 3.723 -3.724 S 48.724 72.694 48.724 74.747 z M 35.435 30.971 c 0 -0.415 0.338 -0.753 0.753 -0.753 h 17.623 c 0.415 0 0.753 0.338 0.753 0.753 v 6.6 c 0 0.415 -0.338 0.753 -0.753 0.753 H 36.188 c -0.416 0 -0.753 -0.338 -0.753 -0.753 V 30.971 z M 54.564 42.077 v 6.599 c 0 0.415 -0.338 0.753 -0.753 0.753 H 36.188 c -0.416 0 -0.753 -0.338 -0.753 -0.753 v -6.599 c 0 -0.415 0.338 -0.753 0.753 -0.753 h 17.623 C 54.227 41.324 54.564 41.662 54.564 42.077 z M 54.564 59.781 c 0 0.415 -0.338 0.753 -0.753 0.753 H 36.188 c -0.416 0 -0.753 -0.338 -0.753 -0.753 v -6.599 c 0 -0.416 0.338 -0.754 0.753 -0.754 h 17.623 c 0.415 0 0.753 0.338 0.753 0.754 V 59.781 z" style="stroke: none; stroke-width: 1; stroke-dasharray: none; stroke-linecap: butt; stroke-linejoin: miter; stroke-miterlimit: 10; fill: yellow; fill-rule: nonzero; opacity: 1;" transform=" matrix(1 0 0 1 0 0) " stroke-linecap="round" />
	<path d="M 51.417 35.771 h -0.834 c -0.828 0 -1.5 -0.671 -1.5 -1.5 s 0.672 -1.5 1.5 -1.5 h 0.834 c 0.828 0 1.5 0.671 1.5 1.5 S 52.245 35.771 51.417 35.771 z" style="stroke: none; stroke-width: 1; stroke-dasharray: none; stroke-linecap: butt; stroke-linejoin: miter; stroke-miterlimit: 10; fill: yellow; fill-rule: nonzero; opacity: 1;" transform=" matrix(1 0 0 1 0 0) " stroke-linecap="round" />
	<path d="M 46.041 35.771 h -0.834 c -0.829 0 -1.5 -0.671 -1.5 -1.5 s 0.671 -1.5 1.5 -1.5 h 0.834 c 0.828 0 1.5 0.671 1.5 1.5 S 46.869 35.771 46.041 35.771 z" style="stroke: none; stroke-width: 1; stroke-dasharray: none; stroke-linecap: butt; stroke-linejoin: miter; stroke-miterlimit: 10; fill: yellow; fill-rule: nonzero; opacity: 1;" transform=" matrix(1 0 0 1 0 0) " stroke-linecap="round" />
</g>
</svg>